<svg width="70" height="70" viewBox="0 0 70 70" fill="none" xmlns="http://www.w3.org/2000/svg">
<path d="M25.0541 39.4042L44.9749 51.0125M44.9458 18.9875L25.0541 30.5959M61.2499 14.5834C61.2499 19.4159 57.3324 23.3334 52.4999 23.3334C47.6674 23.3334 43.7499 19.4159 43.7499 14.5834C43.7499 9.75088 47.6674 5.83337 52.4999 5.83337C57.3324 5.83337 61.2499 9.75088 61.2499 14.5834ZM26.2499 35C26.2499 39.8325 22.3324 43.75 17.4999 43.75C12.6674 43.75 8.74994 39.8325 8.74994 35C8.74994 30.1675 12.6674 26.25 17.4999 26.25C22.3324 26.25 26.2499 30.1675 26.2499 35ZM61.2499 55.4167C61.2499 60.2492 57.3324 64.1667 52.4999 64.1667C47.6674 64.1667 43.7499 60.2492 43.7499 55.4167C43.7499 50.5842 47.6674 46.6667 52.4999 46.6667C57.3324 46.6667 61.2499 50.5842 61.2499 55.4167Z" stroke="#28A7E9" stroke-width="4" stroke-linecap="round" stroke-linejoin="round"/>
</svg>
