<svg width="28" height="29" viewBox="0 0 28 29" fill="none" xmlns="http://www.w3.org/2000/svg">
<path d="M27.4999 14.8061C27.4999 13.6734 27.408 12.8469 27.2091 11.9898H14.2756V17.1019H21.8673C21.7143 18.3723 20.8878 20.2856 19.051 21.5712L19.0253 21.7424L23.1146 24.9103L23.3979 24.9386C25.9999 22.5355 27.4999 18.9999 27.4999 14.8061Z" fill="#4285F4"/>
<path d="M14.2757 28.2753C17.995 28.2753 21.1173 27.0507 23.398 24.9386L19.0511 21.5712C17.8879 22.3824 16.3266 22.9487 14.2757 22.9487C10.6329 22.9487 7.54115 20.5458 6.43902 17.2244L6.27748 17.2381L2.02533 20.5289L1.96973 20.6835C4.23498 25.1834 8.88798 28.2753 14.2757 28.2753Z" fill="#34A853"/>
<path d="M6.43863 17.2244C6.14782 16.3673 5.97952 15.4489 5.97952 14.5C5.97952 13.5509 6.14782 12.6326 6.42333 11.7755L6.41563 11.593L2.1102 8.24933L1.96933 8.31633C1.03571 10.1837 0.5 12.2806 0.5 14.5C0.5 16.7193 1.03571 18.8162 1.96933 20.6835L6.43863 17.2244Z" fill="#FBBC05"/>
<path d="M14.2757 6.05109C16.8624 6.05109 18.6072 7.16841 19.6021 8.10214L23.4898 4.30625C21.1022 2.0869 17.995 0.72467 14.2757 0.72467C8.88798 0.72467 4.23498 3.81644 1.96973 8.31634L6.42373 11.7755C7.54116 8.45414 10.6329 6.05109 14.2757 6.05109Z" fill="#EB4335"/>
</svg>
